<svg width="503" height="87" viewBox="0 0 503 87" fill="none" xmlns="http://www.w3.org/2000/svg">
<path d="M96.14 65V24.424H79.756V19.88H117.836V24.424H101.452V65H96.14ZM136.478 65L120.67 19.88H126.174L140.062 60.52H137.822L151.966 19.88H156.19L170.142 60.52H168.158L182.11 19.88H187.358L171.55 65H166.878L153.31 25.96H154.718L141.022 65H136.478ZM194.756 65V19.88H200.004V65H194.756ZM211.131 65V19.88H215.227L243.963 58.216H242.427V19.88H247.291V65H243.323L214.587 26.664H216.059V65H211.131ZM258.506 65V19.88H276.362C279.604 19.88 282.335 20.4133 284.554 21.48C286.815 22.504 288.522 24.04 289.674 26.088C290.826 28.0933 291.402 30.5467 291.402 33.448C291.402 36.264 290.826 38.696 289.674 40.744C288.522 42.792 286.815 44.3493 284.554 45.416C282.335 46.4827 279.604 47.016 276.362 47.016H263.754V65H258.506ZM263.754 42.6H275.722C279.178 42.6 281.78 41.832 283.53 40.296C285.322 38.7173 286.218 36.4347 286.218 33.448C286.218 30.4187 285.322 28.136 283.53 26.6C281.78 25.0213 279.178 24.232 275.722 24.232H263.754V42.6ZM299.006 65V19.88H304.254V65H299.006ZM310.453 65L328.373 40.936V42.92L311.285 19.88H317.429L331.509 39.144H329.845L343.797 19.88H350.005L332.917 42.92V40.936L350.773 65H344.565L329.589 44.584H331.637L316.725 65H310.453ZM357.006 65V19.88H385.486V24.296H362.126V39.912H384.142V44.328H362.126V60.584H385.486V65H357.006ZM394.318 65V19.88H399.566V60.392H422.542V65H394.318Z" fill="white"/>
<path d="M68.5 20L80 19.8815V24.3945L75.6075 24.3945L68.5 20Z" fill="white"/>
<path d="M96 58H101.5V65L96 73V58Z" fill="white"/>
<path d="M344.5 65L350 64L357.5 73.5L349 71L344.5 65Z" fill="white"/>
<path d="M329.5 41.5L332 39.6718L335 43.6718L333 46.1718L329.5 41.5Z" fill="white"/>
<path d="M68.5 20L80 19.8815V24.3945L75.6075 24.3945L68.5 20Z" fill="white"/>
<path d="M344.5 65L350 64L357.5 73.5L349 71L344.5 65Z" fill="white"/>
<path d="M343.797 19.874H349.989L316.8 65H310.453L343.797 19.874Z" fill="#2F89FF"/>
<path d="M326.2 39.7734L330.5 37.7734L335 43.7L332 47.7734L326.2 39.7734Z" fill="white"/>
</svg>
